<svg height="20" viewBox="0 0 107 20" width="107" xmlns="http://www.w3.org/2000/svg"><g fill="none"><path d="m46.634 13.145v-3.895c0-1.47-.938-2.46-2.447-2.472a2.408 2.408 0 0 0 -2.184 1.106 2.283 2.283 0 0 0 -2.055-1.106 2.057 2.057 0 0 0 -1.818.924v-.779h-1.353v6.223h1.366v-3.446c0-1.08.597-1.652 1.522-1.652s1.353.584 1.353 1.639v3.46h1.359v-3.449c0-1.08.623-1.652 1.522-1.652.898 0 1.366.584 1.366 1.639v3.46zm20.215-6.218h-2.21v-1.885h-1.366v1.885h-1.263v1.237h1.263v2.833c0 1.445.558 2.304 2.158 2.304a3.18 3.18 0 0 0 1.691-.48l-.39-1.159a2.499 2.499 0 0 1 -1.197.351c-.675 0-.899-.416-.899-1.039v-2.81h2.21zm11.54-.156a1.834 1.834 0 0 0 -1.638.912v-.756h-1.34v6.218h1.353v-3.485c0-1.04.441-1.6 1.327-1.6.29-.004.577.049.847.156l.415-1.276a2.89 2.89 0 0 0 -.963-.169zm-17.446.65a4.65 4.65 0 0 0 -2.538-.65c-1.574 0-2.597.756-2.597 1.99 0 1.016.753 1.639 2.145 1.834l.637.09c.74.105 1.093.3 1.093.65 0 .48-.493.756-1.418.756a3.314 3.314 0 0 1 -2.078-.65l-.616 1.053a4.486 4.486 0 0 0 2.694.807c1.795 0 2.836-.846 2.836-2.028 0-1.094-.82-1.665-2.171-1.86l-.636-.09c-.585-.079-1.055-.196-1.055-.611 0-.455.442-.728 1.184-.728.681.01 1.348.194 1.938.533zm36.239-.65a1.834 1.834 0 0 0 -1.64.912v-.756h-1.34v6.218h1.354v-3.485c0-1.04.441-1.6 1.327-1.6.29-.004.578.049.847.156l.415-1.276a2.89 2.89 0 0 0 -.963-.169zm-17.426 3.265c0 1.886 1.314 3.265 3.317 3.265.812.04 1.61-.225 2.236-.743l-.65-1.093a2.732 2.732 0 0 1 -1.625.558c-1.08 0-1.873-.794-1.873-1.99 0-1.194.795-1.976 1.873-1.989a2.732 2.732 0 0 1 1.626.559l.65-1.094a3.257 3.257 0 0 0 -2.237-.743c-2.003 0-3.317 1.38-3.317 3.265zm12.67 0v-3.116h-1.353v.756a2.358 2.358 0 0 0 -1.964-.911c-1.743 0-3.117 1.366-3.117 3.265 0 1.898 1.366 3.265 3.117 3.265a2.358 2.358 0 0 0 1.964-.912v.753h1.353v-3.099zm-5.034 0c0-1.093.714-1.99 1.886-1.99 1.12 0 1.873.86 1.873 1.99s-.754 1.99-1.873 1.99c-1.172 0-1.886-.899-1.886-1.99zm-16.327-3.265c-1.818 0-3.096 1.328-3.096 3.265 0 1.977 1.327 3.265 3.187 3.265a3.78 3.78 0 0 0 2.55-.872l-.662-1.003a2.964 2.964 0 0 1 -1.818.65c-.873 0-1.665-.403-1.86-1.523h4.618c.013-.169.026-.337.026-.52 0-1.937-1.21-3.264-2.953-3.264zm-.026 1.21c.873 0 1.431.546 1.574 1.51h-3.223c.142-.899.688-1.51 1.652-1.51zm33.935 2.055v-5.606h-1.353v3.25a2.358 2.358 0 0 0 -1.964-.912c-1.743 0-3.117 1.366-3.117 3.265 0 1.898 1.366 3.265 3.117 3.265a2.358 2.358 0 0 0 1.964-.912v.753h1.353v-3.104zm1.582 2.535a.397.397 0 0 1 .369.548.4.4 0 0 1 -.37.242.403.403 0 0 1 -.373-.242.395.395 0 0 1 .38-.548zm0 .702a.294.294 0 0 0 .215-.089.31.31 0 0 0 -.096-.5.299.299 0 0 0 -.12-.024.31.31 0 0 0 -.22.525.31.31 0 0 0 .226.088zm.023-.494a.166.166 0 0 1 .11.031c.025.021.04.053.038.086.001.029-.01.056-.03.075a.145.145 0 0 1 -.087.037l.12.137h-.094l-.111-.137h-.037v.137h-.078v-.363l.17-.003zm-.09.068v.098h.09a.088.088 0 0 0 .05 0 .042.042 0 0 0 .018-.036.042.042 0 0 0 -.018-.036.088.088 0 0 0 -.05 0zm-6.544-2.81c0-1.094.715-1.99 1.886-1.99 1.12 0 1.873.86 1.873 1.99s-.753 1.989-1.873 1.989c-1.171 0-1.886-.899-1.886-1.99zm-45.688 0v-3.119h-1.353v.756a2.358 2.358 0 0 0 -1.956-.904c-1.743 0-3.117 1.367-3.117 3.265 0 1.9 1.366 3.265 3.117 3.265a2.358 2.358 0 0 0 1.964-.911v.753h1.353l-.008-3.107zm-5.034 0c0-1.094.715-1.99 1.886-1.99 1.12 0 1.873.86 1.873 1.99s-.753 1.989-1.873 1.989c-1.171 0-1.886-.896-1.886-1.99z" fill="#fff"/><path d="m11.327 2.645h8.182v14.704h-8.182z" fill="#ff5f00"/><path d="m11.847 10a9.335 9.335 0 0 1 3.571-7.35 9.35 9.35 0 1 0 0 14.703 9.335 9.335 0 0 1 -3.571-7.353z" fill="#eb001b"/><path d="m30.548 10a9.35 9.35 0 0 1 -15.13 7.35 9.35 9.35 0 0 0 0-14.703 9.35 9.35 0 0 1 15.13 7.353zm-.898 5.922v-.41h.121v-.082h-.303v.085h.122v.411zm.6 0v-.496h-.081l-.11.355-.108-.355h-.096v.496h.054v-.372l.101.323h.07l.102-.323v.376l.067-.004z" fill="#f79e1b"/></g></svg>