<svg height="19" viewBox="0 0 108 19" width="108" xmlns="http://www.w3.org/2000/svg"><g fill="none" fill-rule="evenodd"><path d="m20.335 16.259h-2.646v-9.349h9.52v9.349h-2.644v-7.533h-4.23zm8.154-6.785h2.293l-.017.816h.048c.93-.975 2.052-1.07 2.63-1.07 2.292 0 3.7 1.416 3.7 3.658 0 2.153-1.426 3.633-3.75 3.633-.32 0-1.65-.064-2.467-.95v3.167h-2.436v-9.254zm2.324 3.38c0 1.175.481 2.296 1.907 2.296 1.394 0 1.892-1.12 1.892-2.296 0-1.896-1.17-2.27-1.892-2.27-.736 0-1.907.374-1.907 2.27zm12.372 2.589c-.898.842-1.763 1.068-2.725 1.068-2.627 0-2.724-1.975-2.724-2.79v-4.247h2.436v3.927c0 1.348.465 1.749 1.364 1.749 1.536 0 1.649-1.376 1.649-1.87v-3.806h2.435v6.785h-2.435zm5.928-2.042h1.49c1.156 0 1.393.345 1.393.8 0 .294-.159.694-1.361.694h-1.522zm-2.436-3.927v6.785h4.84c1.763 0 2.982-.349 2.982-1.736 0-1.07-.595-1.536-1.941-1.777v-.04c.882-.119 1.65-.667 1.65-1.588 0-1.644-1.922-1.644-2.675-1.644zm2.436 1.364h1.315c.688 0 1.28.106 1.28.666 0 .614-.928.628-1.33.628h-1.265zm8.46.828c0-1.004 1.057-1.083 1.491-1.083.273 0 1.282.015 1.315.895v.188c-.049.667-.69.532-2.484.76-1.475.2-3.03.574-3.03 2.123 0 .56.242 1.962 2.837 1.962.994 0 2.083-.252 2.724-.92h.05l.208.668h2.561v-.12c-.463-.094-.495-.549-.478-1.284l.047-3.098c.017-.786-.064-2.537-3.734-2.537-.88 0-3.716.08-3.83 2.446zm2.82 1.788c0 1.363-1.184 1.696-1.777 1.696-.448 0-1.25-.146-1.25-.787 0-.763.912-.909 1.427-.977.944-.133.864-.092 1.6-.358zm2.694-2.616v-1.364h7.82v1.364h-2.694v5.421h-2.435v-5.421zm10.928-2.112h6.072v-1.815h-8.717v9.348h5.352c2.597 0 4.263-.908 4.263-2.817 0-2.99-3.333-3.059-4.263-3.059h-2.708v-1.657zm0 3.472h2.196c.64 0 1.922.07 1.922 1.188 0 .883-.93 1.055-1.971 1.055h-2.147zm10.143-.532c0-1.004 1.058-1.083 1.489-1.083.274 0 1.284.015 1.316.895v.188c-.048.667-.69.532-2.484.76-1.475.2-3.03.574-3.03 2.123 0 .56.241 1.962 2.837 1.962.993 0 2.083-.252 2.724-.92h.05l.207.668h2.565v-.12c-.467-.094-.499-.549-.482-1.284l.048-3.098c.016-.786-.065-2.537-3.735-2.537-.88 0-3.716.08-3.83 2.446zm2.82 1.788c0 1.363-1.186 1.696-1.778 1.696-.45 0-1.251-.146-1.251-.787 0-.763.914-.909 1.426-.977.946-.133.866-.092 1.602-.358v.426zm5.897 2.805h-2.434v-6.785h2.434v2.551h2.933v-2.551h2.436v6.785h-2.436v-2.873h-2.933zm11.521-6.785h2.71l-3.35 3.178 3.51 3.607h-2.854l-2.628-2.965h-.047v2.965h-2.437v-6.785h2.436v2.724h.047z" fill="#5bb245"/><path d="m0 16.282h6.102v-6.1h-6.102z" fill="#6d6c6b"/><path d="m12.386 3.906v9.152h-1.244c-.537-4.526-3.383-7.369-7.909-7.906v-1.246zm-12.38-3.226v7.592h1.615c4.245 0 6.399 2.155 6.399 6.399v1.613h7.592v-15.604h-15.605z" fill="#5bb245"/></g></svg>