<svg height="20" viewBox="0 0 62 20" width="62" xmlns="http://www.w3.org/2000/svg"><g fill="none" fill-rule="evenodd"><path d="m25.864 18.75h-4.614l2.886-18.75h4.614zm18.622-17.905-.674 4.176-.449-.205c-.897-.391-2.08-.782-3.692-.74-1.957 0-2.835.842-2.855 1.665 0 .906 1.061 1.502 2.795 2.387 2.856 1.379 4.18 3.066 4.161 5.267-.04 4.012-3.426 6.605-8.627 6.605-2.224-.02-4.366-.495-5.529-1.03l.694-4.34.653.308c1.611.721 2.671 1.03 4.65 1.03 1.428 0 2.958-.598 2.977-1.894 0-.843-.652-1.461-2.57-2.408-1.876-.926-4.384-2.469-4.344-5.246.021-3.765 3.469-6.4 8.364-6.4 1.917 0 3.468.432 4.446.824zm12.707-.473 3.999 19.34h-4.59s-.45-2.223-.591-2.902h-6.365l-1.04 2.901h-5.201l7.363-17.734c.51-1.257 1.408-1.605 2.59-1.605zm-6.12 12.488h4.121c-.204-.967-1.142-5.596-1.142-5.596l-.347-1.666c-.245.72-.673 1.893-.652 1.851 0 0-1.57 4.3-1.98 5.411zm-33.653-12.488h5.242l-7.792 19.32h-5.243l-4.446-16.914c3.14 1.667 5.956 5.02 6.853 8.106l.53 2.675z" fill="#00579f"/><path d="m8.057.372h-7.975l-.082.39c6.221 1.606 10.341 5.474 12.034 10.124l-1.734-8.888c-.285-1.236-1.162-1.585-2.243-1.626" fill="#faa61a"/></g></svg>