<svg height="30" viewBox="0 0 31 30" width="31" xmlns="http://www.w3.org/2000/svg"><g fill="#fff" fill-rule="evenodd" opacity=".5"><path d="m0 15c0-8.284 6.725-15 15.022-15 8.296 0 15.021 6.716 15.021 15s-6.725 15-15.021 15c-8.297 0-15.022-6.716-15.022-15zm22.84-3.02s-.157-1.126-.636-1.622c-.608-.652-1.29-.655-1.603-.692-2.239-.166-5.597-.166-5.597-.166h-.008s-3.358 0-5.597.166c-.313.037-.994.04-1.603.692-.48.496-.636 1.623-.636 1.623s-.16 1.323-.16 2.646v1.24c0 1.324.16 2.647.16 2.647s.156 1.126.635 1.622c.61.652 1.409.632 1.765.7 1.28.124 5.44.164 5.44.164s3.362-.005 5.601-.17c.313-.039.995-.042 1.603-.694.48-.496.636-1.622.636-1.622s.16-1.323.16-2.647v-1.24c0-1.323-.16-2.646-.16-2.646z"/><path d="m13.348 17.87v-4.593l4.322 2.305z"/></g></svg>